<svg xmlns="http://www.w3.org/2000/svg" width="256" height="256" viewBox="0 0 100 100"><rect width="100" height="100" rx="20" fill="#7d6ee7"></rect><path fill="#fff" d="M50.05 43.48L50.05 43.48Q50.05 54.46 45.32 61.30Q40.60 68.14 33.04 70.66L33.04 70.66Q36.37 72.46 38.93 73.76Q41.50 75.07 43.70 76.06Q45.91 77.05 47.93 77.86Q49.96 78.67 52.21 79.48L52.21 79.48Q52.39 80.11 52.39 80.51Q52.39 80.92 52.39 81.28L52.39 81.28Q52.39 82.99 51.35 84.02Q50.32 85.06 48.43 85.06L48.43 85.06Q45.55 85.06 40.91 82.58Q36.28 80.11 30.34 76.06L30.34 76.06L24.40 72.01L23.95 72.01Q18.37 72.01 13.60 70.16Q8.83 68.32 5.32 64.76Q1.81 61.21-0.17 55.85Q-2.15 50.50-2.15 43.48L-2.15 43.48Q-2.15 36.46-0.13 31.15Q1.90 25.84 5.41 22.24Q8.92 18.64 13.69 16.79Q18.46 14.95 23.95 14.95L23.95 14.95Q29.44 14.95 34.21 16.79Q38.98 18.64 42.49 22.24Q46.00 25.84 48.02 31.15Q50.05 36.46 50.05 43.48ZM42.58 43.48L42.58 43.48Q42.58 32.68 37.49 26.92Q32.41 21.16 23.95 21.16L23.95 21.16Q19.72 21.16 16.30 22.64Q12.88 24.13 10.45 26.96Q8.02 29.80 6.71 33.94Q5.41 38.08 5.41 43.48L5.41 43.48Q5.41 54.28 10.45 60.04Q15.49 65.80 23.95 65.80L23.95 65.80Q32.50 65.80 37.54 60.04Q42.58 54.28 42.58 43.48ZM102.16 18.64L102.16 18.64Q102.16 19.63 100.81 22.46Q99.45 25.30 97.03 29.53Q94.59 33.76 91.22 39.16Q87.84 44.56 83.80 50.59L83.80 50.59L83.80 70.66Q83.34 70.84 82.40 71.06Q81.45 71.29 80.47 71.29L80.47 71.29Q76.50 71.29 76.50 67.96L76.50 67.96L76.50 50.59Q73.98 46.90 71.33 42.76Q68.67 38.62 66.06 34.39Q63.45 30.16 61.12 26.11Q58.77 22.06 56.98 18.46L56.98 18.46Q57.34 17.47 58.33 16.52Q59.31 15.58 60.94 15.58L60.94 15.58Q62.65 15.58 63.59 16.48Q64.53 17.38 65.53 19.18L65.53 19.18Q66.97 21.70 68.90 25.12Q70.84 28.54 72.86 32.05Q74.89 35.56 76.78 38.84Q78.66 42.13 80.02 44.29L80.02 44.29L80.38 44.29Q85.06 36.46 88.70 29.71Q92.34 22.96 95.94 16.21L95.94 16.21Q96.48 15.85 97.25 15.71Q98.02 15.58 98.73 15.58L98.73 15.58Q102.16 15.58 102.16 18.64Z"></path></svg>